<?xml version="1.0" encoding="UTF-8"?><svg id="Layer_1" xmlns="http://www.w3.org/2000/svg" viewBox="0 0 100 100"><defs><style>.cls-1{fill:#fff;}.cls-2{fill:#1e1e1e;}</style></defs><circle class="cls-2" cx="50" cy="50" r="49"/><path class="cls-1" d="m77.49,31.54c2.23-2.23,2.23-5.85,0-8.08s-5.85-2.23-8.08,0l-18.78,18.8-18.8-18.78c-2.23-2.23-5.85-2.23-8.08,0s-2.23,5.85,0,8.08l18.8,18.78-18.78,18.8c-2.23,2.23-2.23,5.85,0,8.08s5.85,2.23,8.08,0l18.78-18.8,18.8,18.78c2.23,2.23,5.85,2.23,8.08,0,2.23-2.23,2.23-5.85,0-8.08l-18.8-18.78,18.78-18.8Z"/></svg>